HIERARCHY
ROOT hip
{
  OFFSET -81.569 83.7456 8.46964
  CHANNELS 6 Xposition Yposition Zposition Zrotation Xrotation Yrotation
  JOINT abdomen
  {
    OFFSET 0 20.6881 -0.73152
    CHANNELS 3 Zrotation Xrotation Yrotation
    JOINT chest
    {
      OFFSET 0 11.7043 -0.48768
      CHANNELS 3 Zrotation Xrotation Yrotation
      JOINT neck
      {
        OFFSET 0 22.1894 -2.19456
        CHANNELS 3 Zrotation Xrotation Yrotation
        JOINT head
        {
          OFFSET -0.24384 7.07133 1.2192
          CHANNELS 3 Zrotation Xrotation Yrotation
          JOINT leftEye
          {
            OFFSET 4.14528 8.04674 8.04672
            CHANNELS 3 Zrotation Xrotation Yrotation
            End Site
            {
              OFFSET 1 0 0
            }
          }
          JOINT rightEye
          {
            OFFSET -3.6576 8.04674 8.04672
            CHANNELS 3 Zrotation Xrotation Yrotation
            End Site
            {
              OFFSET 1 0 0
            }
          }
        }
      }
      JOINT rCollar
      {
        OFFSET -2.68224 19.2634 -4.8768
        CHANNELS 3 Zrotation Xrotation Yrotation
        JOINT rShldr
        {
          OFFSET -8.77824 -1.95073 1.46304
          CHANNELS 3 Zrotation Xrotation Yrotation
          JOINT rForeArm
          {
            OFFSET -28.1742 -1.7115 0.48768
            CHANNELS 3 Zrotation Xrotation Yrotation
            JOINT rHand
            {
              OFFSET -22.5879 0.773209 7.07136
              CHANNELS 3 Zrotation Xrotation Yrotation
              JOINT rThumb1
              {
                OFFSET -1.2192 -0.487915 3.41376
                CHANNELS 3 Zrotation Xrotation Yrotation
                JOINT rThumb2
                {
                  OFFSET -3.37035 -0.52449 3.41376
                  CHANNELS 3 Zrotation Xrotation Yrotation
                  End Site
                  {
                    OFFSET -1.78271 -1.18214 1.43049
                  }
                }
              }
              JOINT rIndex1
              {
                OFFSET -7.75947 0.938293 5.60832
                CHANNELS 3 Zrotation Xrotation Yrotation
                JOINT rIndex2
                {
                  OFFSET -2.54057 -0.884171 1.56538
                  CHANNELS 3 Zrotation Xrotation Yrotation
                  End Site
                  {
                    OFFSET -1.62519 -0.234802 1.16502
                  }
                }
              }
              JOINT rMid1
              {
                OFFSET -8.24714 1.18213 3.41376
                CHANNELS 3 Zrotation Xrotation Yrotation
                JOINT rMid2
                {
                  OFFSET -3.10165 -0.590103 1.0647
                  CHANNELS 3 Zrotation Xrotation Yrotation
                  End Site
                  {
                    OFFSET -2.48547 -0.328903 0.83742
                  }
                }
              }
              JOINT rRing1
              {
                OFFSET -8.82822 0.546677 1.51678
                CHANNELS 3 Zrotation Xrotation Yrotation
                JOINT rRing2
                {
                  OFFSET -2.60934 -0.819778 -0.0198488
                  CHANNELS 3 Zrotation Xrotation Yrotation
                  End Site
                  {
                    OFFSET -2.33842 -0.294052 0.168128
                  }
                }
              }
              JOINT rPinky1
              {
                OFFSET -8.27202 -0.0477905 -0.4584
                CHANNELS 3 Zrotation Xrotation Yrotation
                JOINT rPinky2
                {
                  OFFSET -1.82734 -0.647385 -0.700984
                  CHANNELS 3 Zrotation Xrotation Yrotation
                  End Site
                  {
                    OFFSET -1.69225 -0.51767 -0.607171
                  }
                }
              }
            }
          }
        }
      }
      JOINT lCollar
      {
        OFFSET 2.68224 19.2634 -4.8768
        CHANNELS 3 Zrotation Xrotation Yrotation
        JOINT lShldr
        {
          OFFSET 8.77824 -1.95073 1.46304
          CHANNELS 3 Zrotation Xrotation Yrotation
          JOINT lForeArm
          {
            OFFSET 28.1742 -1.7115 0.48768
            CHANNELS 3 Zrotation Xrotation Yrotation
            JOINT lHand
            {
              OFFSET 22.5879 0.773209 7.07136
              CHANNELS 3 Zrotation Xrotation Yrotation
              JOINT lThumb1
              {
                OFFSET 1.2192 -0.487915 3.41376
                CHANNELS 3 Zrotation Xrotation Yrotation
                JOINT lThumb2
                {
                  OFFSET 3.37035 -0.52449 3.41376
                  CHANNELS 3 Zrotation Xrotation Yrotation
                  End Site
                  {
                    OFFSET 1.78271 -1.18214 1.43049
                  }
                }
              }
              JOINT lIndex1
              {
                OFFSET 7.75947 0.938293 5.60832
                CHANNELS 3 Zrotation Xrotation Yrotation
                JOINT lIndex2
                {
                  OFFSET 2.54057 -0.884171 1.56538
                  CHANNELS 3 Zrotation Xrotation Yrotation
                  End Site
                  {
                    OFFSET 1.62519 -0.234802 1.16502
                  }
                }
              }
              JOINT lMid1
              {
                OFFSET 8.24714 1.18213 3.41376
                CHANNELS 3 Zrotation Xrotation Yrotation
                JOINT lMid2
                {
                  OFFSET 3.10165 -0.590103 1.0647
                  CHANNELS 3 Zrotation Xrotation Yrotation
                  End Site
                  {
                    OFFSET 2.48547 -0.328903 0.83742
                  }
                }
              }
              JOINT lRing1
              {
                OFFSET 8.82822 0.546677 1.51678
                CHANNELS 3 Zrotation Xrotation Yrotation
                JOINT lRing2
                {
                  OFFSET 2.60934 -0.819778 -0.0198488
                  CHANNELS 3 Zrotation Xrotation Yrotation
                  End Site
                  {
                    OFFSET 2.33842 -0.294052 0.168128
                  }
                }
              }
              JOINT lPinky1
              {
                OFFSET 8.27202 -0.0477905 -0.4584
                CHANNELS 3 Zrotation Xrotation Yrotation
                JOINT lPinky2
                {
                  OFFSET 1.82734 -0.647385 -0.700984
                  CHANNELS 3 Zrotation Xrotation Yrotation
                  End Site
                  {
                    OFFSET 1.69225 -0.51767 -0.607171
                  }
                }
              }
            }
          }
        }
      }
    }
  }
  JOINT rButtock
  {
    OFFSET -8.77824 4.35084 1.2192
    CHANNELS 3 Zrotation Xrotation Yrotation
    JOINT rThigh
    {
      OFFSET 0 -1.70687 -2.19456
      CHANNELS 3 Zrotation Xrotation Yrotation
      JOINT rShin
      {
        OFFSET 0 -36.8199 0.73152
        CHANNELS 3 Zrotation Xrotation Yrotation
        JOINT rFoot
        {
          OFFSET 0.73152 -45.1104 -5.12064
          CHANNELS 3 Zrotation Xrotation Yrotation
          End Site
          {
            OFFSET -1.1221 -3.69964 12.103
          }
        }
      }
    }
  }
  JOINT lButtock
  {
    OFFSET 8.77824 4.35084 1.2192
    CHANNELS 3 Zrotation Xrotation Yrotation
    JOINT lThigh
    {
      OFFSET 0 -1.70687 -2.19456
      CHANNELS 3 Zrotation Xrotation Yrotation
      JOINT lShin
      {
        OFFSET 0 -36.8199 0.73152
        CHANNELS 3 Zrotation Xrotation Yrotation
        JOINT lFoot
        {
          OFFSET -0.73152 -45.1104 -5.12064
          CHANNELS 3 Zrotation Xrotation Yrotation
          End Site
          {
            OFFSET 1.1221 -3.69964 12.103
          }
        }
      }
    }
  }
}
MOTION
Frames:	8
Frame Time:	0.00833333
-64.4714 85.1919 21.3119 -0.432445 -0.00109267 0.00738273 0.569005 -0.00295246 0.0162651 0.157039 -0.00456253 0.0272094 9.98409e-015 -7.95139e-016 1.67725e-016 3.00569e-014 3.18055e-015 5.0628e-016 -0 0 0 -0 0 0 5.16716e-015 -1.45594e-017 2.48481e-016 1.06958e-013 -4.84538e-016 3.18055e-015 1.81023e-012 -5.50832e-013 4.13472e-014 2.07291e-011 4.97011e-013 3.56222e-013 4.88929e-011 -1.15933e-013 8.68291e-013 8.44401e-011 -2.03556e-013 1.47419e-012 4.88978e-011 -1.1291e-013 8.5875e-013 7.73091 5.47488 0.417314 4.88943e-011 -1.15196e-013 8.5875e-013 2.90554 0.965183 0.102902 4.89109e-011 -1.14997e-013 8.54774e-013 10.2786 0.731801 0.0259123 4.88935e-011 -1.15295e-013 8.52389e-013 2.22167 -0.733487 -0.20892 5.07058e-015 -1.32005e-017 -4.96962e-017 1.0302e-013 -5.77718e-016 1.39149e-015 1.81277e-012 5.33737e-013 -1.59028e-014 2.07241e-011 -5.97422e-013 4.13472e-013 4.88897e-011 -1.37592e-013 8.42847e-013 8.44258e-011 -2.38542e-013 1.47896e-012 4.88839e-011 -1.34378e-013 8.52389e-013 -7.73091 5.47488 -0.417314 4.8887e-011 -1.36466e-013 8.49208e-013 -2.90554 0.965183 -0.102902 4.88724e-011 -1.36565e-013 8.53979e-013 -10.2786 0.731801 -0.0259123 4.88859e-011 -1.37957e-013 8.52389e-013 -2.22167 -0.733487 0.20892 -2.03217e-016 0 -3.88251e-019 0.928624 -4.52916 -0.0776733 -0.00199967 2.65214 -0.00874077 -0.500875 1.87723 0.0953363 2.03217e-016 0 3.88251e-019 -0.0622986 -2.33915 0.0221476 0.0081001 -1.31474 0.0693731 0.492979 3.65401 -0.130496 
-69.2674 83.976 14.3756 -2.95647 -3.90821 27.5862 1.02991 0.526037 -0.0179081 -0.442478 -1.1852 0.00638181 1.54171 5.06992 1.20865 -2.53876 -9.46296 1.74247 -0 0 0 -0 0 0 -1.87218e-014 2.54889e-013 1.46569e-014 21.756 10.5958 0.458439 -3.25246 -1.32658 5.23256 0.193847 9.7949 1.3051 -1.17047e-010 -1.29382e-010 2.97912e-010 -1.9313e-010 -2.20476e-010 5.18007e-010 -1.17041e-010 -1.29383e-010 2.97902e-010 7.73091 5.47488 0.417314 -1.17046e-010 -1.29384e-010 2.97905e-010 2.90554 0.965183 0.102902 -1.17034e-010 -1.29384e-010 2.97903e-010 10.2786 0.731801 0.0259123 -1.1705e-010 -1.29383e-010 2.97904e-010 2.22167 -0.733487 -0.20892 -1.88163e-014 2.54891e-013 1.437e-014 -22.1126 5.73984 1.40775 3.76896 -1.63106 -5.9729 -0.0339135 4.10606 -0.571823 1.90586e-010 -3.0181e-011 5.7967e-011 3.29691e-010 -5.25699e-011 9.81825e-011 1.9058e-010 -3.01794e-011 5.79757e-011 -7.73091 5.47488 -0.417314 1.90583e-010 -3.01815e-011 5.79728e-011 -2.90554 0.965183 -0.102902 1.90571e-010 -3.01817e-011 5.79759e-011 -10.2786 0.731801 -0.0259123 1.90585e-010 -3.01832e-011 5.79742e-011 -2.22167 -0.733487 0.20892 -2.03217e-016 0 -3.88251e-019 1.25649 -6.43354 0.502463 0.00733677 9.0076 0.0937594 -0.434315 -2.74354 0.531534 2.03217e-016 0 3.88251e-019 0.44272 -5.6482 0.488897 0.00343542 6.9513 -0.0532106 0.39903 -0.00231462 -0.930684 
-69.3569 83.9757 14.4392 -2.22282 -4.93734 56.9173 1.50264 1.08314 -0.0595626 -1.07434 -2.42883 -0.0171723 2.93404 10.3992 2.52298 -4.57339 -19.3974 3.75623 -0 0 0 -0 0 0 -4.60198e-014 5.19671e-013 2.3323e-014 44.5542 21.8346 1.01863 -6.43718 -2.69724 10.7872 -0.1148 20.1113 2.81505 -2.88039e-010 -2.71331e-010 6.43251e-010 -4.7805e-010 -4.61941e-010 1.11794e-009 -2.88032e-010 -2.71337e-010 6.43241e-010 7.73091 5.47488 0.417314 -2.88039e-010 -2.71336e-010 6.43247e-010 2.90554 0.965183 0.102902 -2.88032e-010 -2.71337e-010 6.43246e-010 10.2786 0.731801 0.0259123 -2.88046e-010 -2.71334e-010 6.43251e-010 2.22167 -0.733487 -0.20892 -4.61137e-014 5.19675e-013 2.30466e-014 -45.8048 11.8648 2.92746 7.4058 -3.30908 -12.3352 0.0202414 8.39923 -1.17976 3.83353e-010 -7.24949e-011 1.15273e-010 6.63091e-010 -1.26235e-010 1.94425e-010 3.83347e-010 -7.24952e-011 1.15281e-010 -7.73091 5.47488 -0.417314 3.8335e-010 -7.24973e-011 1.15278e-010 -2.90554 0.965183 -0.102902 3.83341e-010 -7.24976e-011 1.15279e-010 -10.2786 0.731801 -0.0259123 3.83354e-010 -7.24991e-011 1.15278e-010 -2.22167 -0.733487 0.20892 -2.03217e-016 0 -3.88251e-019 1.62389 -8.45227 1.10774 -0.00849627 15.7331 0.207553 -0.284121 -7.63282 1.01275 2.03217e-016 0 3.88251e-019 1.01859 -9.14428 0.993592 0.0380327 15.6816 -0.188891 0.188714 -3.86153 -1.78084 
-69.4212 83.9767 14.4772 -1.0105 -1.70269 82.7307 1.95362 1.58402 -0.0862853 -1.64409 -3.54648 -0.0353452 3.96416 15.1822 3.74257 -5.69375 -28.2765 5.85719 -0 0 0 -0 0 0 -6.64998e-014 7.64696e-013 4.34737e-014 64.6833 31.7785 1.59032 -9.03921 -3.8472 15.7298 -0.922887 29.3191 4.42609 -4.48928e-010 -3.87913e-010 8.92e-010 -7.4827e-010 -6.61021e-010 1.55107e-009 -4.4892e-010 -3.87922e-010 8.9199e-010 7.73091 5.47488 0.417314 -4.48927e-010 -3.8792e-010 8.91998e-010 2.90554 0.965183 0.102902 -4.48925e-010 -3.87921e-010 8.91999e-010 10.2786 0.731801 0.0259123 -4.48938e-010 -3.87917e-010 8.92007e-010 2.22167 -0.733487 -0.20892 -6.65901e-014 7.647e-013 4.32093e-014 -67.2168 17.177 4.39864 10.3023 -4.68088 -17.9734 0.149023 12.3132 -1.75137 4.73979e-010 -9.02677e-011 1.72215e-010 8.2022e-010 -1.57233e-010 2.91589e-010 4.73973e-010 -9.02695e-011 1.72222e-010 -7.73091 5.47488 -0.417314 4.73975e-010 -9.02716e-011 1.7222e-010 -2.90554 0.965183 -0.102902 4.73968e-010 -9.02721e-011 1.7222e-010 -10.2786 0.731801 -0.0259123 4.73982e-010 -9.02736e-011 1.72218e-010 -2.22167 -0.733487 0.20892 -2.03217e-016 0 -3.88251e-019 2.02967 -10.2387 1.67951 -0.0467561 21.7183 0.317834 -0.0861274 -11.9818 1.43344 2.03217e-016 0 3.88251e-019 1.61791 -12.2631 1.44837 0.107079 23.4831 -0.324003 -0.0969895 -7.3078 -2.55234 
-69.4366 83.9785 14.4432 -1.26733 3.01677 100.213 2.34839 1.94432 -0.0756354 -2.05644 -4.34919 -0.0399715 4.56097 18.6257 4.61594 -5.938 -34.6235 7.59443 -0 0 0 -0 0 0 -6.99349e-014 9.60326e-013 9.23355e-014 78.6242 38.4955 1.96354 -10.6949 -4.57443 19.1111 -1.88243 35.8156 5.82092 -5.84557e-010 -4.41076e-010 8.99273e-010 -9.81737e-010 -7.54141e-010 1.56723e-009 -5.84549e-010 -4.41087e-010 8.99264e-010 7.73091 5.47488 0.417314 -5.84557e-010 -4.41084e-010 8.99273e-010 2.90554 0.965183 0.102902 -5.84558e-010 -4.41085e-010 8.99276e-010 10.2786 0.731801 0.0259123 -5.8457e-010 -4.41081e-010 8.99286e-010 2.22167 -0.733487 -0.20892 -7.00141e-014 9.60331e-013 9.2087e-014 -82.2923 20.4967 5.57597 12.0707 -5.49834 -21.7468 0.295339 15.2836 -2.20095 3.0925e-010 -4.66874e-011 2.28249e-010 5.36669e-010 -8.1559e-011 3.91059e-010 3.09244e-010 -4.66901e-011 2.28256e-010 -7.73091 5.47488 -0.417314 3.09246e-010 -4.66922e-011 2.28253e-010 -2.90554 0.965183 -0.102902 3.09241e-010 -4.66927e-011 2.28252e-010 -10.2786 0.731801 -0.0259123 3.09254e-010 -4.66941e-011 2.28249e-010 -2.22167 -0.733487 0.20892 -2.03217e-016 0 -3.88251e-019 2.45166 -11.4472 2.15428 -0.0880064 25.8528 0.401784 0.067804 -14.9835 1.67145 2.03217e-016 0 3.88251e-019 2.15623 -14.4419 1.7549 0.180781 28.9626 -0.432194 -0.353802 -9.72882 -3.10274 
-69.4509 83.9829 14.3568 -1.86638 5.6533 106.924 2.70181 2.11718 -0.0117579 -2.24893 -4.71968 -0.0251788 4.77777 20.238 4.91538 -5.78572 -37.5562 8.30183 -0 0 0 -0 0 0 -4.36412e-014 1.10812e-012 2.03792e-013 84.1865 40.716 1.86547 -11.2419 -4.79782 20.2876 -2.40093 38.5574 6.4986 -7.56788e-010 -4.14997e-010 4.65793e-010 -1.29078e-009 -7.17383e-010 8.24719e-010 -7.5678e-010 -4.15007e-010 4.65784e-010 7.73091 5.47488 0.417314 -7.56788e-010 -4.15005e-010 4.65793e-010 2.90554 0.965183 0.102902 -7.56788e-010 -4.15006e-010 4.65795e-010 10.2786 0.731801 0.0259123 -7.56801e-010 -4.15002e-010 4.65807e-010 2.22167 -0.733487 -0.20892 -4.36895e-014 1.10812e-012 2.03572e-013 -88.189 21.0903 6.21988 12.5625 -5.68228 -22.8856 0.386761 16.899 -2.45166 -3.38162e-010 1.0539e-010 2.55471e-010 -5.80406e-010 1.8301e-010 4.48153e-010 -3.38167e-010 1.05387e-010 2.55477e-010 -7.73091 5.47488 -0.417314 -3.38165e-010 1.05385e-010 2.55471e-010 -2.90554 0.965183 -0.102902 -3.3817e-010 1.05384e-010 2.55471e-010 -10.2786 0.731801 -0.0259123 -3.38157e-010 1.05383e-010 2.55468e-010 -2.22167 -0.733487 0.20892 -2.03217e-016 0 -3.88251e-019 2.91366 -11.8449 2.52525 -0.106145 27.3789 0.435439 0.0779489 -16.0558 1.6134 2.03217e-016 0 3.88251e-019 2.59969 -15.3161 1.84234 0.217653 31.2081 -0.48085 -0.471232 -10.7276 -3.32115 
-69.4627 83.9899 14.2386 -1.8354 5.85558 106.176 3.02383 2.15569 0.090101 -2.28418 -4.78102 0.00347904 4.78119 20.5467 4.77932 -5.60092 -38.0776 8.09157 -0 0 0 -0 0 0 3.60797e-015 1.22073e-012 3.58893e-013 83.8069 39.7239 1.3927 -11.0411 -4.68424 19.8845 -2.39748 38.6365 6.51055 -9.51735e-010 -3.31863e-010 -2.77622e-010 -1.64775e-009 -5.86974e-010 -4.51364e-010 -9.51728e-010 -3.31869e-010 -2.7763e-010 7.73091 5.47488 0.417314 -9.51734e-010 -3.31869e-010 -2.77622e-010 2.90554 0.965183 0.102902 -9.51733e-010 -3.3187e-010 -2.77621e-010 10.2786 0.731801 0.0259123 -9.51746e-010 -3.31866e-010 -2.7761e-010 2.22167 -0.733487 -0.20892 3.60442e-015 1.22073e-012 3.5871e-013 -87.4454 19.7453 6.44759 12.1948 -5.44585 -22.1358 0.416193 17.5496 -2.55223 -1.32439e-009 3.33888e-010 2.63423e-010 -2.28254e-009 5.8062e-010 4.77152e-010 -1.32439e-009 3.33886e-010 2.6343e-010 -7.73091 5.47488 -0.417314 -1.32439e-009 3.33884e-010 2.6342e-010 -2.90554 0.965183 -0.102902 -1.32439e-009 3.33884e-010 2.63422e-010 -10.2786 0.731801 -0.0259123 -1.32438e-009 3.33883e-010 2.63418e-010 -2.22167 -0.733487 0.20892 -2.03217e-016 0 -3.88251e-019 3.38981 -11.6642 2.81743 -0.1009 27.0428 0.429267 -0.0250594 -15.7522 1.33983 2.03217e-016 0 3.88251e-019 2.96109 -15.2585 1.76892 0.215862 31.1428 -0.479277 -0.465083 -10.7117 -3.29595 
-69.4689 83.9977 14.1151 -1.47784 4.76996 102.498 3.27254 2.12551 0.205742 -2.25442 -4.7048 0.0370578 4.70006 20.2942 4.48104 -5.39028 -37.5661 7.53754 -0 0 0 -0 0 0 4.9854e-014 1.28516e-012 4.95613e-013 81.0012 37.4213 0.801471 -10.5354 -4.43332 18.8495 -2.17562 37.6682 6.25065 -1.04063e-009 -2.10634e-010 -9.80708e-010 -1.82066e-009 -3.89561e-010 -1.66105e-009 -1.04062e-009 -2.10637e-010 -9.80716e-010 7.73091 5.47488 0.417314 -1.04063e-009 -2.10638e-010 -9.80709e-010 2.90554 0.965183 0.102902 -1.04062e-009 -2.10638e-010 -9.80709e-010 10.2786 0.731801 0.0259123 -1.04064e-009 -2.10636e-010 -9.80699e-010 2.22167 -0.733487 -0.20892 4.98856e-014 1.28516e-012 4.95459e-013 -84.0267 17.5729 6.50448 11.4608 -5.03055 -20.6196 0.418424 17.8735 -2.5999 -2.24584e-009 5.56792e-010 3.07733e-010 -3.87219e-009 9.68157e-010 5.67874e-010 -2.24584e-009 5.5679e-010 3.0774e-010 -7.73091 5.47488 -0.417314 -2.24584e-009 5.56788e-010 3.07726e-010 -2.90554 0.965183 -0.102902 -2.24584e-009 5.56788e-010 3.0773e-010 -10.2786 0.731801 -0.0259123 -2.24583e-009 5.56788e-010 3.07725e-010 -2.22167 -0.733487 0.20892 -2.03217e-016 0 -3.88251e-019 3.78084 -11.2578 3.01341 -0.0870544 25.9901 0.408039 -0.15268 -14.9707 1.00993 2.03217e-016 0 3.88251e-019 3.21828 -14.8129 1.62526 0.19787 30.1273 -0.456825 -0.408884 -10.2776 -3.17606 
